<?xml version="1.0"?>
<svg xmlns="http://www.w3.org/2000/svg" height="512px" viewBox="0 -88 480 480" width="512px" class=""><g><path d="m392 72c0 8.835938-7.164062 16-16 16s-16-7.164062-16-16 7.164062-16 16-16 16 7.164062 16 16zm0 0" fill="#78b9eb" data-original="#78B9EB" class="active-path" style="fill:#FCFDFD" data-old_color="#F7FBFB"/><path d="m376 88c-26.507812 0-48 21.492188-48 48h96c0-26.507812-21.492188-48-48-48zm0 0" fill="#78b9eb" data-original="#78B9EB" class="active-path" style="fill:#FCFDFD" data-old_color="#F7FBFB"/><path d="m104 176h32c26.507812 0 48-21.492188 48-48v-32c0-26.507812-21.492188-48-48-48h-32c-26.507812 0-48 21.492188-48 48v32c0 26.507812 21.492188 48 48 48zm-1.664062-113.664062 49.664062 49.664062-49.9375 49.9375 49.9375-49.9375zm0 0" fill="#78b9eb" data-original="#78B9EB" class="active-path" style="fill:#FCFDFD" data-old_color="#F7FBFB"/><path d="m248 216h112v16h-112zm0 0" fill="#78b9eb" data-original="#78B9EB" class="active-path" style="fill:#FCFDFD" data-old_color="#F7FBFB"/><path d="m376 216h80v16h-80zm0 0" fill="#78b9eb" data-original="#78B9EB" class="active-path" style="fill:#FCFDFD" data-old_color="#F7FBFB"/><path d="m248 240h32v16h-32zm0 0" fill="#78b9eb" data-original="#78B9EB" class="active-path" style="fill:#FCFDFD" data-old_color="#F7FBFB"/><path d="m296 240h160v16h-160zm0 0" fill="#78b9eb" data-original="#78B9EB" class="active-path" style="fill:#FCFDFD" data-old_color="#F7FBFB"/><path d="m24 216h96v16h-96zm0 0" fill="#78b9eb" data-original="#78B9EB" class="active-path" style="fill:#FCFDFD" data-old_color="#F7FBFB"/><path d="m136 216h96v16h-96zm0 0" fill="#78b9eb" data-original="#78B9EB" class="active-path" style="fill:#FCFDFD" data-old_color="#F7FBFB"/><path d="m24 240h160v16h-160zm0 0" fill="#78b9eb" data-original="#78B9EB" class="active-path" style="fill:#FCFDFD" data-old_color="#F7FBFB"/><path d="m200 240h32v16h-32zm0 0" fill="#78b9eb" data-original="#78B9EB" class="active-path" style="fill:#FCFDFD" data-old_color="#F7FBFB"/><path d="m107.726562 167.59375 49.929688-49.9375c3.121094-3.125 3.121094-8.1875 0-11.3125l-49.65625-49.671875-11.320312 11.328125 44 44-44.273438 44.28125zm0 0" fill="#78b9eb" data-original="#78B9EB" class="active-path" style="fill:#FCFDFD" data-old_color="#F7FBFB"/><g fill="#1a6fb0"><path d="m328 144h96c4.417969 0 8-3.582031 8-8-.035156-22.929688-14.03125-43.523438-35.335938-52 2.160157-3.632812 3.3125-7.773438 3.335938-12 0-13.253906-10.746094-24-24-24s-24 10.746094-24 24c.023438 4.226562 1.175781 8.367188 3.335938 12-21.304688 8.476562-35.300782 29.070312-35.335938 52 0 4.417969 3.582031 8 8 8zm40-72c0-4.417969 3.582031-8 8-8s8 3.582031 8 8-3.582031 8-8 8-8-3.582031-8-8zm8 24c19 .019531 35.375 13.386719 39.199219 32h-78.398438c3.824219-18.613281 20.199219-31.980469 39.199219-32zm0 0" data-original="#000000" class="" style="fill:#6666FF" data-old_color="#6666ff"/><path d="m448 24h-144c-4.417969 0-8 3.582031-8 8v128c0 4.417969 3.582031 8 8 8h144c4.417969 0 8-3.582031 8-8v-128c0-4.417969-3.582031-8-8-8zm-8 128h-128v-112h128zm0 0" data-original="#000000" class="" style="fill:#6666FF" data-old_color="#6666ff"/><path d="m456 0h-432c-13.253906 0-24 10.746094-24 24v256c0 13.253906 10.746094 24 24 24h432c13.253906 0 24-10.746094 24-24v-256c0-13.253906-10.746094-24-24-24zm8 280c0 4.417969-3.582031 8-8 8h-432c-4.417969 0-8-3.582031-8-8v-256c0-4.417969 3.582031-8 8-8h432c4.417969 0 8 3.582031 8 8zm0 0" data-original="#000000" class="" style="fill:#6666FF" data-old_color="#6666ff"/><path d="m248 216h112v16h-112zm0 0" data-original="#000000" class="" style="fill:#6666FF" data-old_color="#6666ff"/><path d="m376 216h80v16h-80zm0 0" data-original="#000000" class="" style="fill:#6666FF" data-old_color="#6666ff"/><path d="m248 240h32v16h-32zm0 0" data-original="#000000" class="" style="fill:#6666FF" data-old_color="#6666ff"/><path d="m296 240h160v16h-160zm0 0" data-original="#000000" class="" style="fill:#6666FF" data-old_color="#6666ff"/><path d="m24 216h96v16h-96zm0 0" data-original="#000000" class="" style="fill:#6666FF" data-old_color="#6666ff"/><path d="m136 216h96v16h-96zm0 0" data-original="#000000" class="" style="fill:#6666FF" data-old_color="#6666ff"/><path d="m24 240h160v16h-160zm0 0" data-original="#000000" class="" style="fill:#6666FF" data-old_color="#6666ff"/><path d="m200 240h32v16h-32zm0 0" data-original="#000000" class="" style="fill:#6666FF" data-old_color="#6666ff"/><path d="m104 184h32c30.914062-.035156 55.964844-25.085938 56-56v-32c-.035156-30.914062-25.085938-55.964844-56-56h-32c-30.914062.035156-55.964844 25.085938-56 56v32c.035156 30.914062 25.085938 55.964844 56 56zm-40-88c.027344-22.082031 17.917969-39.972656 40-40h32c22.082031.027344 39.972656 17.917969 40 40v32c-.027344 22.082031-17.917969 39.972656-40 40h-32c-22.082031-.027344-39.972656-17.917969-40-40zm0 0" data-original="#000000" class="" style="fill:#6666FF" data-old_color="#6666ff"/><path d="m107.726562 167.59375 49.929688-49.9375c3.121094-3.125 3.121094-8.1875 0-11.3125l-49.65625-49.671875-11.320312 11.328125 44 44-44.273438 44.28125zm0 0" data-original="#000000" class="" style="fill:#6666FF" data-old_color="#6666ff"/></g></g> </svg>
