<?xml version="1.0"?>
<svg xmlns="http://www.w3.org/2000/svg" height="512px" viewBox="0 -8 480 480" width="512px" class=""><g><path d="m304 320.464844h64v80h-64zm0 0" fill="#78b9eb" data-original="#78B9EB" class="active-path" style="fill:#E8FDF7" data-old_color="#E7FCF6"/><path d="m112 256.464844h64v144h-64zm0 0" fill="#78b9eb" data-original="#78B9EB" class="active-path" style="fill:#E8FDF7" data-old_color="#E7FCF6"/><g fill="#1a6fb0"><path d="m208 168.464844c-4.417969 0-8 3.578125-8 8v224c0 4.417968 3.582031 8 8 8h64c4.417969 0 8-3.582032 8-8v-224c0-4.421875-3.582031-8-8-8zm56 224h-48v-208h48zm0 0" data-original="#000000" class="" style="fill:#33CC99" data-old_color="#33cc99"/><path d="m400 136.464844c-4.417969 0-8 3.578125-8 8v256c0 4.417968 3.582031 8 8 8h64c4.417969 0 8-3.582032 8-8v-256c0-4.421875-3.582031-8-8-8zm56 256h-48v-240h48zm0 0" data-original="#000000" class="" style="fill:#33CC99" data-old_color="#33cc99"/><path d="m304 312.464844c-4.417969 0-8 3.578125-8 8v80c0 4.417968 3.582031 8 8 8h64c4.417969 0 8-3.582032 8-8v-80c0-4.421875-3.582031-8-8-8zm56 80h-48v-64h48zm0 0" data-original="#000000" class="" style="fill:#33CC99" data-old_color="#33cc99"/><path d="m16 408.464844h64c4.417969 0 8-3.582032 8-8v-192c0-4.421875-3.582031-8-8-8h-64c-4.417969 0-8 3.578125-8 8v192c0 4.417968 3.582031 8 8 8zm8-192h48v176h-48zm0 0" data-original="#000000" class="" style="fill:#33CC99" data-old_color="#33cc99"/><path d="m112 248.464844c-4.417969 0-8 3.578125-8 8v144c0 4.417968 3.582031 8 8 8h64c4.417969 0 8-3.582032 8-8v-144c0-4.421875-3.582031-8-8-8zm56 144h-48v-128h48zm0 0" data-original="#000000" class="" style="fill:#33CC99" data-old_color="#33cc99"/><path d="m48 128.464844c9.226562-.03125 17.980469-4.066406 24-11.058594l40.726562 20.367188c-3.046874 13.683593 3.164063 27.757812 15.328126 34.726562 12.160156 6.96875 27.445312 5.210938 37.707031-4.339844 10.261719-9.546875 13.113281-24.664062 7.039062-37.296875l48.566407-40.425781c8.371093 6.195312 19.300781 7.761719 29.074218 4.160156l61.75 92.699219c-11.753906 13.097656-10.722656 33.234375 2.308594 45.0625 13.035156 11.828125 33.171875 10.914063 45.078125-2.046875 11.90625-12.964844 11.109375-33.109375-1.785156-45.089844l66.398437-121.785156c2.550782.667969 5.171875 1.011719 7.808594 1.027344 15.496094.109375 28.878906-10.820313 31.859375-26.027344 2.984375-15.207031-5.273437-30.382812-19.664063-36.136719-14.390624-5.75-30.835937-.449219-39.15625 12.625-8.320312 13.074219-6.160156 30.21875 5.144532 40.816407l-66.398438 121.785156c-6.015625-1.664063-12.40625-1.371094-18.242187.839844l-61.765625-92.695313c10.761718-11.9375 11-30.007813.554687-42.222656-10.445312-12.21875-28.332031-14.792969-41.796875-6.015625s-18.328125 26.183594-11.367187 40.667968l-48.566407 40.425782c-13.324218-9.71875-31.886718-7.542969-42.601562 4.992187l-40.726562-20.367187c2.832031-13.261719-3-26.871094-14.554688-33.960938-11.558594-7.09375-26.332031-6.132812-36.871094 2.398438-10.542968 8.53125-14.558594 22.78125-10.03125 35.5625 4.53125 12.78125 16.625 21.320312 30.183594 21.3125zm384-112c8.835938 0 16 7.160156 16 16 0 8.835937-7.164062 16-16 16s-16-7.164063-16-16c0-8.839844 7.164062-16 16-16zm-80 192c0 8.835937-7.164062 16-16 16s-16-7.164063-16-16c0-8.839844 7.164062-16 16-16s16 7.160156 16 16zm-112-160c8.835938 0 16 7.160156 16 16 0 8.835937-7.164062 16-16 16s-16-7.164063-16-16c0-8.839844 7.164062-16 16-16zm-96 80c8.835938 0 16 7.160156 16 16 0 8.835937-7.164062 16-16 16s-16-7.164063-16-16c0-8.839844 7.164062-16 16-16zm-96-48c8.835938 0 16 7.160156 16 16 0 8.835937-7.164062 16-16 16s-16-7.164063-16-16c0-8.839844 7.164062-16 16-16zm0 0" data-original="#000000" class="" style="fill:#33CC99" data-old_color="#33cc99"/><path d="m472 416.464844h-464c-4.417969 0-8 3.578125-8 8v32c0 4.417968 3.582031 8 8 8h464c4.417969 0 8-3.582032 8-8v-32c0-4.421875-3.582031-8-8-8zm-8 32h-448v-16h448zm0 0" data-original="#000000" class="" style="fill:#33CC99" data-old_color="#33cc99"/></g></g> </svg>
