<?xml version="1.0"?>
<svg xmlns="http://www.w3.org/2000/svg" height="512px" viewBox="0 -16 496 496" width="512px" class=""><g><g fill="#78b9eb"><path d="m24 40c-8.835938 0-16-7.164062-16-16s7.164062-16 16-16h16c8.835938 0 16 7.164062 16 16s-7.164062 16-16 16zm0 0" data-original="#000000" class="active-path" style="fill:#EBEBEB" data-old_color="#EEECEC"/><path d="m432 424c0 17.671875-14.328125 32-32 32s-32-14.328125-32-32 14.328125-32 32-32 32 14.328125 32 32zm0 0" data-original="#000000" class="active-path" style="fill:#EBEBEB" data-old_color="#EEECEC"/><path d="m192 424c0 17.671875-14.328125 32-32 32s-32-14.328125-32-32 14.328125-32 32-32 32 14.328125 32 32zm0 0" data-original="#000000" class="active-path" style="fill:#EBEBEB" data-old_color="#EEECEC"/><path d="m416 152c0 66.273438-53.726562 120-120 120s-120-53.726562-120-120 53.726562-120 120-120 120 53.726562 120 120zm0 0" data-original="#000000" class="active-path" style="fill:#EBEBEB" data-old_color="#EEECEC"/></g><path d="m128 368h291.28125c11.191406.046875 20.914062-7.6875 23.390625-18.601562l45.128906-195.597657c.546875-2.378906-.015625-4.875-1.535156-6.78125-1.519531-1.910156-3.828125-3.019531-6.265625-3.019531h-56.40625c-4.074219-67.488281-59.992188-120.132812-127.601562-120.132812-67.609376 0-123.527344 52.644531-127.601563 120.132812h-40.390625c-13.253906 0-24 10.746094-24 24v176c0 13.253906 10.746094 24 24 24zm-8-200c0-4.417969 3.582031-8 8-8h40.40625c4.074219 67.488281 59.992188 120.132812 127.601562 120.132812 67.609376 0 123.527344-52.644531 127.601563-120.132812h46.351563l-42.882813 185.808594c-.839844 3.628906-4.074219 6.195312-7.796875 6.191406h-291.28125c-4.417969 0-8-3.582031-8-8zm176-128c61.855469 0 112 50.144531 112 112s-50.144531 112-112 112-112-50.144531-112-112c.066406-61.828125 50.171875-111.933594 112-112zm0 0" fill="#1a6fb0" data-original="#1A6FB0" class="" style="fill:#4A4EC7" data-old_color="#4a4ec7"/><path d="m488 416h-48.800781c-3.785157-18.644531-20.175781-32.039062-39.199219-32.039062s-35.414062 13.394531-39.199219 32.039062h-161.601562c-3.71875-18.324219-19.652344-31.613281-38.347657-31.980469-18.691406-.367187-35.136718 12.289063-39.570312 30.453125-33.441406-6.851562-57.40625-36.339844-57.28125-70.472656v-320c0-13.253906-10.746094-24-24-24h-16c-13.253906 0-24 10.746094-24 24s10.746094 24 24 24h16c2.730469-.027344 5.4375-.523438 8-1.472656v297.472656c-.148438 42.726562 30.558594 79.324219 72.664062 86.601562 3.136719 19.019532 19.410157 33.082032 38.683594 33.425782 19.273438.34375 36.039063-13.132813 39.851563-32.027344h161.601562c3.785157 18.644531 20.175781 32.039062 39.199219 32.039062s35.414062-13.394531 39.199219-32.039062h48.800781c4.417969 0 8-3.582031 8-8s-3.582031-8-8-8zm-448-384h-16c-4.417969 0-8-3.582031-8-8s3.582031-8 8-8h16c4.417969 0 8 3.582031 8 8s-3.582031 8-8 8zm120 416c-13.253906 0-24-10.746094-24-24s10.746094-24 24-24 24 10.746094 24 24-10.746094 24-24 24zm240 0c-13.253906 0-24-10.746094-24-24s10.746094-24 24-24 24 10.746094 24 24-10.746094 24-24 24zm0 0" fill="#1a6fb0" data-original="#1A6FB0" class="" style="fill:#4A4EC7" data-old_color="#4a4ec7"/><path d="m290.34375 237.65625c.070312.070312.167969.097656.242188.160156.679687.667969 1.476562 1.210938 2.351562 1.597656 2.980469 1.230469 6.410156.546876 8.695312-1.734374l64-64c3.03125-3.140626 2.988282-8.128907-.097656-11.214844-3.085937-3.085938-8.074218-3.128906-11.214844-.097656l-50.320312 50.320312v-148.6875c0-4.417969-3.582031-8-8-8s-8 3.582031-8 8v148.6875l-50.34375-50.34375c-3.140625-3.03125-8.128906-2.988281-11.214844.097656-3.085937 3.085938-3.128906 8.074219-.097656 11.214844zm0 0" fill="#1a6fb0" data-original="#1A6FB0" class="" style="fill:#4A4EC7" data-old_color="#4a4ec7"/></g> </svg>
