<?xml version="1.0" encoding="utf-8"?>
<!-- Generator: Adobe Illustrator 22.1.0, SVG Export Plug-In . SVG Version: 6.00 Build 0)  -->
<svg version="1.1" id="Layer_1" xmlns="http://www.w3.org/2000/svg" xmlns:xlink="http://www.w3.org/1999/xlink" x="0px" y="0px"
	 viewBox="0 0 512 512" style="enable-background:new 0 0 512 512;" xml:space="preserve">
<style type="text/css">
	.st0{fill:#6666FF;}
</style>
<g>
	<g>
		<g>
			<path class="st0" d="M498.4,175.7L336.3,13.6C327.5,4.8,315.9,0,303.4,0c-12.4,0-24.1,4.8-32.9,13.6l-257,257
				C4.8,279.3,0,291,0,303.4c0,12.4,4.8,24.1,13.6,32.9l20,20c0,0,0,0,0,0c0,0,0,0,0,0l134.4,134.4h-18.6c-5.9,0-10.7,4.8-10.7,10.7
				c0,5.9,4.8,10.7,10.7,10.7h59.2c0,0,0,0,0,0s0,0,0,0l154.1,0c5.9,0,10.7-4.8,10.7-10.7c0-5.9-4.8-10.7-10.7-10.7l-113.5,0
				l249.2-249.2C516.5,223.3,516.5,193.8,498.4,175.7z M483.3,226.4l-257,257c-4.7,4.7-11,7.3-17.7,7.3h-0.1c-6.7,0-13-2.6-17.7-7.3
				L56.2,348.7L303,101.9c4.2-4.2,4.2-10.9,0-15.1c-4.2-4.2-10.9-4.2-15.1,0L41.1,333.7l-12.5-12.5c-4.7-4.7-7.3-11-7.3-17.8
				s2.6-13.1,7.3-17.8l257-257c4.7-4.7,11-7.3,17.8-7.3c6.7,0,13.1,2.6,17.8,7.3l57.7,57.7L132.1,333.2c-4.2,4.2-4.2,10.9,0,15.1
				c2.1,2.1,4.8,3.1,7.5,3.1c2.7,0,5.5-1,7.5-3.1L394,101.5l89.3,89.3C493.1,200.6,493.1,216.5,483.3,226.4z"/>
			<path class="st0" d="M262.8,308.1c-4.2-4.2-10.9-4.2-15.1,0L163.8,392c-4.2,4.2-4.2,10.9,0,15.1c2.1,2.1,4.8,3.1,7.5,3.1
				c2.7,0,5.5-1,7.5-3.1l83.9-83.9C267,319,267,312.2,262.8,308.1z"/>
			<path class="st0" d="M228.4,387.7l-34.4,34.4c-4.2,4.2-4.2,10.9,0,15.1c2.1,2.1,4.8,3.1,7.5,3.1c2.7,0,5.5-1,7.5-3.1l34.4-34.4
				c4.2-4.2,4.2-10.9,0-15.1S232.5,383.6,228.4,387.7z"/>
			<path class="st0" d="M260.1,356.1l-4.5,4.5c-4.2,4.2-4.2,10.9,0,15.1c2.1,2.1,4.8,3.1,7.5,3.1s5.5-1,7.5-3.1l4.5-4.5
				c4.2-4.2,4.2-10.9,0-15.1C271,351.9,264.2,351.9,260.1,356.1z"/>
			<path class="st0" d="M407.1,163.8c-2-2-4.7-3.1-7.5-3.1c-2.8,0-5.5,1.1-7.5,3.1L346.7,209c-2,2-3.1,4.7-3.1,7.5s1.1,5.5,3.1,7.5
				l30.2,30.2c2.1,2.1,4.8,3.1,7.5,3.1c2.7,0,5.5-1,7.5-3.1l45.3-45.3c4.2-4.2,4.2-10.9,0-15.1L407.1,163.8z M384.4,231.7
				l-15.1-15.1l30.2-30.2l15.1,15.1L384.4,231.7z"/>
			<path class="st0" d="M320.3,80.2c2.7,0,5.5-1,7.5-3.1l4.5-4.5c4.2-4.2,4.2-10.9,0-15.1c-4.2-4.2-10.9-4.2-15.1,0l-4.5,4.5
				c-4.2,4.2-4.2,10.9,0,15.1C314.9,79.1,317.6,80.2,320.3,80.2z"/>
			<path class="st0" d="M107.2,358.1l-4.5,4.5c-4.2,4.2-4.2,10.9,0,15.1c2.1,2.1,4.8,3.1,7.5,3.1s5.5-1,7.5-3.1l4.5-4.5
				c4.2-4.2,4.2-10.9,0-15.1C118.1,353.9,111.4,353.9,107.2,358.1z"/>
		</g>
	</g>
</g>
</svg>
