<?xml version="1.0"?>
<svg xmlns="http://www.w3.org/2000/svg" height="512px" viewBox="0 0 464 464" width="512px" class=""><g><path d="m8 184v96h54.679688c3.722656 13.164062 8.976562 25.84375 15.648437 37.785156l-38.664063 38.664063 67.886719 67.886719 38.664063-38.664063c11.941406 6.671875 24.621094 11.925781 37.785156 15.648437v54.679688h96v-54.679688c13.164062-3.722656 25.84375-8.976562 37.785156-15.648437l38.664063 38.664063 67.886719-67.886719-38.664063-38.664063c6.671875-11.941406 11.925781-24.621094 15.648437-37.785156h54.679688v-96h-54.679688c-3.722656-13.164062-8.976562-25.84375-15.648437-37.785156l38.664063-38.664063-67.886719-67.886719-38.664063 38.664063c-11.941406-6.671875-24.621094-11.925781-37.785156-15.648437v-54.679688h-96v54.679688c-13.164062 3.722656-25.84375 8.976562-37.785156 15.648437l-38.664063-38.664063-67.886719 67.886719 38.664063 38.664063c-6.671875 11.941406-11.925781 24.621094-15.648437 37.785156zm76.921875-76.457031 22.628906-22.621094 33.152344 33.148437 21.128906-11.8125c9.757813-5.457031 20.121094-9.753906 30.878907-12.800781l23.289062-6.578125v-46.878906h32v46.878906l23.289062 6.59375c10.757813 3.046875 21.121094 7.34375 30.878907 12.800782l21.128906 11.816406 33.152344-33.152344 22.628906 22.621094-33.15625 33.144531 11.820313 21.128906c5.457031 9.757813 9.753906 20.125 12.800781 30.878907l6.578125 23.289062h46.878906v32h-46.878906l-6.59375 23.289062c-3.046875 10.753907-7.34375 21.121094-12.800782 30.878907l-11.804687 21.128906 33.15625 33.160156-22.628906 22.621094-33.152344-33.148437-21.128906 11.8125c-9.757813 5.457031-20.121094 9.753906-30.878907 12.800781l-23.289062 6.578125v46.878906h-32v-46.878906l-23.289062-6.59375c-10.757813-3.046875-21.121094-7.34375-30.878907-12.800782l-21.128906-11.816406-33.152344 33.152344-22.628906-22.621094 33.15625-33.160156-11.820313-21.128906c-5.457031-9.761719-9.753906-20.125-12.800781-30.878906l-6.578125-23.273438h-46.878906v-32h46.878906l6.59375-23.289062c3.046875-10.753907 7.34375-21.121094 12.800782-30.878907l11.824218-21.128906zm0 0" fill="#78b9eb" data-original="#78B9EB" class="active-path" style="fill:#F4FAFF" data-old_color="#D1EAFD"/><g fill="#1a6fb0"><path d="m456 176h-48.734375c-3.113281-9.757812-7.039063-19.234375-11.738281-28.335938l34.464844-34.464843c3.121093-3.125 3.121093-8.1875 0-11.3125l-67.886719-67.878907c-3.125-3.121093-8.191407-3.121093-11.3125 0l-34.457031 34.464844c-9.101563-4.695312-18.578126-8.621094-28.335938-11.738281v-48.734375c0-4.417969-3.582031-8-8-8h-96c-4.417969 0-8 3.582031-8 8v48.734375c-9.757812 3.117187-19.234375 7.042969-28.335938 11.738281l-34.457031-34.464844c-3.121093-3.121093-8.1875-3.121093-11.3125 0l-67.886719 67.878907c-3.121093 3.125-3.121093 8.1875 0 11.3125l34.464844 34.464843c-4.699218 9.101563-8.625 18.578126-11.738281 28.335938h-48.734375c-4.417969 0-8 3.582031-8 8v96c0 4.417969 3.582031 8 8 8h48.734375c3.113281 9.757812 7.039063 19.234375 11.738281 28.335938l-34.464844 34.464843c-3.121093 3.125-3.121093 8.1875 0 11.3125l67.886719 67.878907c3.125 3.121093 8.191407 3.121093 11.3125 0l34.457031-34.464844c9.101563 4.695312 18.578126 8.621094 28.335938 11.738281v48.734375c0 4.417969 3.582031 8 8 8h96c4.417969 0 8-3.582031 8-8v-48.734375c9.757812-3.117187 19.234375-7.042969 28.335938-11.738281l34.457031 34.464844c3.121093 3.121093 8.1875 3.121093 11.3125 0l67.886719-67.878907c3.121093-3.125 3.121093-8.1875 0-11.3125l-34.464844-34.464843c4.699218-9.101563 8.625-18.578126 11.738281-28.335938h48.734375c4.417969 0 8-3.582031 8-8v-96c0-4.417969-3.582031-8-8-8zm-8 96h-46.679688c-3.578124 0-6.722656 2.378906-7.695312 5.824219-3.554688 12.558593-8.566406 24.660156-14.9375 36.054687-1.769531 3.132813-1.226562 7.0625 1.320312 9.601563l33.007813 33.007812-56.566406 56.566407-33.007813-33.054688c-2.539062-2.550781-6.46875-3.09375-9.601562-1.328125-11.382813 6.359375-23.472656 11.371094-36.015625 14.929687-3.445313.972657-5.824219 4.113282-5.824219 7.695313v46.703125h-80v-46.679688c0-3.578124-2.378906-6.722656-5.824219-7.695312-12.558593-3.558594-24.660156-8.570312-36.054687-14.9375-3.136719-1.765625-7.0625-1.222656-9.601563 1.328125l-33.007812 33.007813-56.527344-56.566407 33.015625-33.007812c2.546875-2.539063 3.089844-6.46875 1.320312-9.601563-6.363281-11.382812-11.371093-23.476562-14.921874-36.023437-.972657-3.453125-4.128907-5.832031-7.71875-5.824219h-46.679688v-80h46.679688c3.578124 0 6.722656-2.378906 7.695312-5.824219 3.554688-12.558593 8.566406-24.660156 14.9375-36.054687 1.769531-3.132813 1.226562-7.0625-1.320312-9.601563l-33.007813-32.976562 56.566406-56.566407 33.007813 33.023438c2.539062 2.550781 6.46875 3.09375 9.601562 1.328125 11.382813-6.359375 23.472656-11.371094 36.015625-14.929687 3.453125-.972657 5.832031-4.128907 5.824219-7.71875v-46.679688h80v46.679688c0 3.578124 2.378906 6.722656 5.824219 7.695312 12.558593 3.558594 24.660156 8.570312 36.054687 14.9375 3.136719 1.765625 7.0625 1.222656 9.601563-1.328125l33.007812-33.007813 56.566407 56.566407-33.054688 33.007812c-2.546875 2.539063-3.089844 6.46875-1.320312 9.601563 6.363281 11.382812 11.371093 23.476562 14.921874 36.023437.972657 3.445313 4.113282 5.824219 7.695313 5.824219h46.703125zm0 0" data-original="#000000" class="" style="fill:#4D7BF3" data-old_color="#4d7bf3"/><path d="m378.222656 190.527344c-3.210937-11.355469-7.742187-22.296875-13.503906-32.597656l-8.863281-15.851563 28.878906-28.878906c3.125-3.125 3.125-8.1875 0-11.3125l-22.628906-22.621094c-3.125-3.125-8.191407-3.125-11.3125 0l-28.871094 28.871094-15.851563-8.863281c-10.304687-5.757813-21.246093-10.289063-32.605468-13.496094l-17.464844-4.976563v-40.800781c0-4.417969-3.582031-8-8-8h-32c-4.417969 0-8 3.582031-8 8v40.800781l-17.464844 4.941407c-11.359375 3.210937-22.300781 7.742187-32.605468 13.496093l-15.851563 8.898438-28.871094-28.871094c-3.121093-3.125-8.1875-3.125-11.3125 0l-22.628906 22.621094c-3.125 3.125-3.125 8.1875 0 11.3125l28.878906 28.878906-8.863281 15.851563c-5.761719 10.300781-10.296875 21.242187-13.511719 32.597656l-4.96875 17.472656h-40.800781c-4.417969 0-8 3.582031-8 8v32c0 4.417969 3.582031 8 8 8h40.800781l4.941407 17.472656c3.210937 11.355469 7.746093 22.296875 13.503906 32.597656l8.867187 15.851563-28.882812 28.878906c-3.121094 3.125-3.121094 8.1875 0 11.3125l22.632812 22.621094c3.125 3.125 8.1875 3.125 11.3125 0l28.871094-28.871094 15.847656 8.863281c10.304688 5.757813 21.25 10.289063 32.609375 13.496094l17.496094 4.976563v40.800781c0 4.417969 3.582031 8 8 8h32c4.417969 0 8-3.582031 8-8v-40.800781l17.464844-4.941407c11.359375-3.210937 22.300781-7.742187 32.605468-13.496093l15.851563-8.867188 28.871094 28.875c3.121093 3.121094 8.1875 3.121094 11.3125 0l22.628906-22.625c3.125-3.125 3.125-8.1875 0-11.3125l-28.878906-28.878906 8.863281-15.847656c5.761719-10.304688 10.296875-21.246094 13.511719-32.601563l4.96875-17.503906h40.800781c4.417969 0 8-3.582031 8-8v-32c0-4.417969-3.582031-8-8-8h-40.800781zm37.777344 49.472656h-38.878906c-3.582032 0-6.722656 2.378906-7.695313 5.824219l-6.59375 23.289062c-2.871093 10.152344-6.921875 19.933594-12.070312 29.144531l-11.824219 21.132813c-1.769531 3.136719-1.226562 7.0625 1.328125 9.601563l27.496094 27.503906-11.3125 11.3125-27.496094-27.496094c-2.539063-2.550781-6.464844-3.09375-9.601563-1.328125l-21.128906 11.816406c-9.210937 5.144531-18.996094 9.195313-29.152344 12.070313l-23.285156 6.59375c-3.414062.984375-5.769531 4.101562-5.785156 7.65625v38.878906h-16v-38.878906c0-3.582032-2.378906-6.722656-5.824219-7.695313l-23.28125-6.59375c-10.15625-2.871093-19.941406-6.925781-29.160156-12.070312l-21.125-11.816407c-3.136719-1.769531-7.0625-1.222656-9.601563 1.328126l-27.496093 27.496093-11.273438-11.3125 27.496094-27.503906c2.554687-2.539063 3.097656-6.464844 1.328125-9.601563l-11.824219-21.136718c-5.148437-9.207032-9.199219-18.988282-12.070312-29.144532l-6.59375-23.285156c-.988281-3.429687-4.125-5.789062-7.695313-5.785156h-38.878906v-16h38.878906c3.582032 0 6.722656-2.378906 7.695313-5.824219l6.59375-23.289062c2.871093-10.152344 6.921875-19.933594 12.070312-29.144531l11.824219-21.132813c1.769531-3.136719 1.226562-7.0625-1.328125-9.601563l-27.496094-27.464843 11.3125-11.3125 27.496094 27.496093c2.539063 2.550782 6.464844 3.097657 9.601563 1.328126l21.128906-11.816407c9.210937-5.144531 18.996094-9.195312 29.152344-12.070312l23.285156-6.59375c3.429687-.988281 5.789062-4.125 5.785156-7.695313v-38.878906h16v38.878906c0 3.582032 2.378906 6.722656 5.824219 7.695313l23.28125 6.59375c10.15625 2.871093 19.941406 6.925781 29.160156 12.070312l21.125 11.816407c3.136719 1.769531 7.0625 1.222656 9.601563-1.328126l27.496093-27.496093 11.3125 11.3125-27.496093 27.503906c-2.550782 2.539063-3.09375 6.464844-1.328126 9.601563l11.824219 21.136718c5.148438 9.207032 9.199219 18.988282 12.070313 29.144532l6.59375 23.285156c.984375 3.414062 4.101562 5.769531 7.65625 5.785156h38.878906zm0 0" data-original="#000000" class="" style="fill:#4D7BF3" data-old_color="#4d7bf3"/><path d="m232 144c22.082031.027344 39.972656 17.917969 40 40h16c-.03125-27.8125-20.472656-51.386719-48-55.359375v-24.640625h-16v24.640625c-28.871094 4.394531-49.515625 30.242187-47.425781 59.375 2.09375 29.128906 26.222656 51.757813 55.425781 51.984375 22.089844 0 40 17.910156 40 40s-17.910156 40-40 40-40-17.910156-40-40h-16c.03125 27.8125 20.472656 51.386719 48 55.359375v24.640625h16v-24.640625c28.871094-4.394531 49.515625-30.242187 47.425781-59.375-2.09375-29.128906-26.222656-51.757813-55.425781-51.984375-22.089844 0-40-17.910156-40-40s17.910156-40 40-40zm0 0" data-original="#000000" class="" style="fill:#4D7BF3" data-old_color="#4d7bf3"/></g></g> </svg>
