<?xml version="1.0" encoding="utf-8"?>
<!-- Generator: Adobe Illustrator 22.1.0, SVG Export Plug-In . SVG Version: 6.00 Build 0)  -->
<svg version="1.1" id="Capa_1" xmlns="http://www.w3.org/2000/svg" xmlns:xlink="http://www.w3.org/1999/xlink" x="0px" y="0px"
	 viewBox="0 0 512 512" style="enable-background:new 0 0 512 512;" xml:space="preserve">
<style type="text/css">
	.st0{fill:#6666FF;}
</style>
<g>
	<g>
		<path class="st0" d="M511.9,306.5c0-68-28-156.8-105.9-188.7v-34l23.2-18.5c2.1-1.7,3.3-4.2,3.3-6.9V8.9c0-4.9-4-8.8-8.8-8.8
			h-26.5c-2.3,0-4.6,0.9-6.2,2.6L379.5,14L368.1,2.6C366.4,1,364.2,0,361.9,0h-35.3c-2.3,0-4.6,0.9-6.2,2.6L308.9,14L297.5,2.6
			C295.8,1,293.6,0,291.2,0h-26.5c-4.9,0-8.8,4-8.8,8.8v49.4c0,2.7,1.2,5.2,3.3,6.9l23.2,18.5v34
			c-77.9,31.9-105.9,120.8-105.9,188.7c-0.2,15.9,2.3,31.8,7.3,46.9c-3.8-0.2-7.6-0.3-11.4-0.3H150c0-4.9-4-8.8-8.8-8.8H70.6
			c-4.9,0-8.8,4-8.8,8.8H0v17.7h61.8V459H0v17.7h61.8c0,4.9,4,8.8,8.8,8.8h70.6c4.9,0,8.8-4,8.8-8.8v-3.4l65.9,27.4
			c35.9,14.7,76.1,15.1,112.3,1.2l136.3-52c8.1-3.1,14.6-9.3,18-17.2c5.3-11.8,3.1-25.7-5.7-35.2
			C500.7,373.3,513.3,340.4,511.9,306.5z M132.4,467.8h-53V361.9h53V467.8z M273.6,54.1V17.7h14l15.1,15.1c3.4,3.4,9,3.4,12.5,0
			l15.1-15.1h28l15.1,15.1c3.4,3.4,9,3.4,12.5,0l15.1-15.1h14v36.4l-20.7,16.6h-99.7L273.6,54.1z M388.3,88.3v26.5h-88.3V88.3H388.3
			z M466.4,425.6c-1.6,3.6-4.5,6.4-8.2,7.8l-136.3,52c-32,12.3-67.5,11.9-99.3-1.1L150,454.1v-83.4h22.4c29.3,0,58.1,6.8,84.3,19.9
			c8.6,4.3,18.2,6.6,27.8,6.6H353c7.3,0,13.2,6,13.2,13.3c0,6.1-4.3,11.4-10.2,12.8c-1.2,0.1-2.3,0.3-3.5,0.3H247.1v17.7h105.4
			c0.2,0,0.4,0,0.5,0c0.2,0,0.3-0.1,0.5-0.1c7-0.1,13.9-1.6,20.4-4.3l73.8-31.3c3.5-1.5,7.5-1.5,11,0c3.7,1.5,6.5,4.5,7.9,8.2
			C468.2,417.6,468.1,421.9,466.4,425.6z M461.2,388c-6.8-1.8-13.9-1.3-20.4,1.4l-57.2,24.3c0.2-1.1,0.3-2.2,0.3-3.2
			c0-17.1-13.8-30.9-30.9-30.9h-68.5c-6.9,0-13.8-1.6-20-4.7c-19.2-9.5-39.7-16-60.8-19.3c-6.6-15.5-9.9-32.2-9.6-49.1
			c0-63.5,26-147,98.8-174.1h102.4c72.9,27.1,98.8,110.5,98.8,174.1C495.7,337.2,483.6,367,461.2,388z"/>
	</g>
</g>
<g>
	<g>
		<rect x="97.1" y="432.5" class="st0" width="17.7" height="17.7"/>
	</g>
</g>
<g>
	<g>
		<path class="st0" d="M362.9,252.9L331,242.3c-3.4-1.1-5.3-4.8-4.2-8.3c0.9-2.7,3.4-4.5,6.3-4.5h22.2c3.6,0,6.6,2.9,6.6,6.6v5.8
			h17.7v-5.8c0-13.4-10.8-24.2-24.2-24.2H353v-17.7h-17.7v17.7h-2.3c-13.4,0-24.2,10.8-24.2,24.2c0,10.4,6.7,19.7,16.6,23l31.9,10.6
			c3.4,1.1,5.3,4.8,4.2,8.3c-0.9,2.7-3.4,4.5-6.3,4.5h-22.2c-3.6,0-6.6-2.9-6.6-6.6v-5.8h-17.7v5.8c0,13.4,10.8,24.2,24.2,24.2h2.3
			v17.7H353v-17.7h2.3c13.4,0,24.2-10.8,24.2-24.2C379.5,265.5,372.8,256.2,362.9,252.9z"/>
	</g>
</g>
<g>
	<g>
		<path class="st0" d="M344.2,158.9c-53.6,0-97.1,43.5-97.1,97.1c0.1,53.6,43.5,97,97.1,97.1c53.6,0,97.1-43.5,97.1-97.1
			S397.8,158.9,344.2,158.9z M344.2,335.4c-43.9,0-79.4-35.6-79.4-79.4c0-43.8,35.6-79.4,79.4-79.4c43.9,0,79.4,35.6,79.4,79.4
			S388.1,335.4,344.2,335.4z"/>
	</g>
</g>
</svg>
