<?xml version="1.0"?>
<svg xmlns="http://www.w3.org/2000/svg" height="512px" viewBox="-96 0 480 480" width="512px" class=""><g><path d="m24 472c-8.835938 0-16-7.164062-16-16v-32h272v32c0 8.835938-7.164062 16-16 16zm0 0" fill="#78b9eb" data-original="#78B9EB" class="active-path" style="fill:#F5F8FB" data-old_color="#EAF0F6"/><path d="m8 56v-32c0-8.835938 7.164062-16 16-16h240c8.835938 0 16 7.164062 16 16v32zm0 0" fill="#78b9eb" data-original="#78B9EB" class="active-path" style="fill:#F5F8FB" data-old_color="#EAF0F6"/><path d="m232 144v97.039062c-.058594 43.210938-25.316406 82.410157-64.640625 100.320313l-23.359375 10.640625-23.359375-10.640625c-39.324219-17.910156-64.582031-57.109375-64.640625-100.320313v-97.039062l88.480469-16zm0 0" fill="#78b9eb" data-original="#78B9EB" class="active-path" style="fill:#F5F8FB" data-old_color="#EAF0F6"/><g fill="#1a6fb0"><path d="m264 0h-240c-13.238281.0390625-23.9609375 10.761719-24 24v432c.0390625 13.238281 10.761719 23.960938 24 24h240c13.238281-.039062 23.960938-10.761719 24-24v-432c-.039062-13.238281-10.761719-23.9609375-24-24zm8 456c0 4.417969-3.582031 8-8 8h-240c-4.417969 0-8-3.582031-8-8v-24h256zm0-40h-256v-352h256zm0-368h-256v-24c0-4.417969 3.582031-8 8-8h240c4.417969 0 8 3.582031 8 8zm0 0" data-original="#000000" class="" style="fill:#57D5AB" data-old_color="#57d5ab"/><path d="m240 24h16v16h-16zm0 0" data-original="#000000" class="" style="fill:#57D5AB" data-old_color="#57d5ab"/><path d="m128 24h32v16h-32zm0 0" data-original="#000000" class="" style="fill:#57D5AB" data-old_color="#57d5ab"/><path d="m128 440h32v16h-32zm0 0" data-original="#000000" class="" style="fill:#57D5AB" data-old_color="#57d5ab"/><path d="m117.3125 348.65625 23.375 10.625c2.105469.957031 4.519531.957031 6.625 0l23.375-10.625c42.167969-19.242188 69.25-61.304688 69.3125-107.65625v-97c-.003906-3.859375-2.761719-7.167969-6.558594-7.863281l-87.503906-16c-.945312-.175781-1.914062-.175781-2.859375 0l-88.503906 16c-3.800781.6875-6.570313 3.996093-6.574219 7.863281v97.015625c.066406 46.347656 27.144531 88.402344 69.3125 107.640625zm-53.3125-197.976562 80.496094-14.542969 79.503906 14.535156v90.34375c-.054688 40.078125-23.472656 76.445313-59.9375 93.082031l-20.0625 9.101563-20.0625-9.109375c-36.460938-16.636719-59.878906-53-59.9375-93.074219zm0 0" data-original="#000000" class="" style="fill:#57D5AB" data-old_color="#57d5ab"/><path d="m144 248c2.121094 0 4.15625-.84375 5.65625-2.34375l64-64-11.3125-11.3125-58.34375 58.34375-26.34375-26.34375-11.3125 11.3125 32 32c1.5 1.5 3.535156 2.34375 5.65625 2.34375zm0 0" data-original="#000000" class="" style="fill:#57D5AB" data-old_color="#57d5ab"/></g></g> </svg>
