<?xml version="1.0" encoding="utf-8"?>
<!-- Generator: Adobe Illustrator 22.1.0, SVG Export Plug-In . SVG Version: 6.00 Build 0)  -->
<svg version="1.1" id="Capa_1" xmlns="http://www.w3.org/2000/svg" xmlns:xlink="http://www.w3.org/1999/xlink" x="0px" y="0px"
	 viewBox="0 0 512 512" style="enable-background:new 0 0 512 512;" xml:space="preserve">
<style type="text/css">
	.st0{fill:#6666FF;}
</style>
<g>
	<g>
		<path class="st0" d="M419.9,223.1h-7.5v-66.7C412.4,70.2,342.3,0,255.9,0C169.7,0,99.5,70.1,99.5,156.4c0,8,6.4,14.3,14.3,14.3
			s14.3-6.4,14.3-14.3c0-70.4,57.3-127.8,127.8-127.8c70.4,0,127.8,57.3,127.8,127.8v66.7H92.1c-15.3,0-27.7,12.4-27.7,27.7v178.3
			c0,45.7,37.2,82.9,82.9,82.9h217.3c45.7,0,82.9-37.2,82.9-82.9V250.8C447.6,235.5,435.2,223.1,419.9,223.1z M418.9,429.1
			c0,29.9-24.3,54.3-54.3,54.3H147.5c-29.9,0-54.3-24.3-54.3-54.3V251.8h325.8V429.1L418.9,429.1z"/>
		<path class="st0" d="M256.1,423.2c29.6,0,53.6-24.1,53.6-53.6c0-29.6-24.1-53.6-53.6-53.6c-29.6,0-53.6,24.1-53.6,53.6
			S226.5,423.2,256.1,423.2z M256.1,344.7c13.8,0,24.9,11.2,24.9,24.9c0,13.7-11.1,25-24.9,25c-13.8,0-24.9-11.2-24.9-24.9
			C231.1,356,242.3,344.7,256.1,344.7z"/>
	</g>
</g>
</svg>
