<?xml version="1.0"?>
<svg xmlns="http://www.w3.org/2000/svg" height="512px" viewBox="0 -36 480 480" width="512px" class=""><g><path d="m284 224c0-26.507812-19.699219-48-44-48s-44 21.492188-44 48 19.699219 48 44 48 44-21.492188 44-48zm0 0" fill="#78b9eb" data-original="#78B9EB" class="active-path" style="fill:#F7FCFD" data-old_color="#F4FAFB"/><path d="m144 400h192c0-70.695312-42.984375-128-96-128s-96 57.304688-96 128zm0 0" fill="#78b9eb" data-original="#78B9EB" class="active-path" style="fill:#F7FCFD" data-old_color="#F4FAFB"/><g fill="#1a6fb0"><path d="m405.839844 237.761719c14.109375-10.972657 22.304687-27.890625 22.160156-45.761719 1.019531-29.792969-22.214844-54.8125-52-56-29.785156 1.1875-53.019531 26.207031-52 56-.171875 17.859375 7.992188 34.78125 22.078125 45.761719-21.996094 9.234375-40.289063 25.53125-52 46.316406-7.289063-5.996094-15.464844-10.828125-24.238281-14.316406 14.109375-10.972657 22.304687-27.890625 22.160156-45.761719 1.019531-29.792969-22.214844-54.8125-52-56-29.785156 1.1875-53.019531 26.207031-52 56-.144531 17.871094 8.050781 34.789062 22.160156 45.761719-8.773437 3.488281-16.949218 8.320312-24.238281 14.316406-11.710937-20.785156-30.003906-37.082031-52-46.316406 14.085937-10.980469 22.25-27.902344 22.078125-45.761719 1.019531-29.792969-22.214844-54.8125-52-56-29.785156 1.1875-53.019531 26.207031-52 56-.144531 17.871094 8.050781 34.789062 22.160156 45.761719-42.878906 16.878906-74.160156 68.796875-74.160156 130.238281 0 4.417969 3.582031 8 8 8h129.761719c-1.160157 7.949219-1.746094 15.96875-1.761719 24 0 4.417969 3.582031 8 8 8h192c4.417969 0 8-3.582031 8-8-.015625-8.03125-.601562-16.050781-1.761719-24h129.761719c4.417969 0 8-3.582031 8-8 0-61.441406-31.28125-113.359375-74.160156-130.238281zm-65.839844-45.761719c-1.027344-20.960938 15.050781-38.820312 36-40 20.949219 1.179688 37.027344 19.039062 36 40 1.027344 20.960938-15.050781 38.820312-36 40-20.949219-1.179688-37.027344-19.039062-36-40zm-136 32c-1.027344-20.960938 15.050781-38.820312 36-40 20.949219 1.179688 37.027344 19.039062 36 40 1.027344 20.960938-15.050781 38.820312-36 40-20.949219-1.179688-37.027344-19.039062-36-40zm-136-32c-1.027344-20.960938 15.050781-38.820312 36-40 20.949219 1.179688 37.027344 19.039062 36 40 1.027344 20.960938-15.050781 38.820312-36 40-20.949219-1.179688-37.027344-19.039062-36-40zm72.640625 168h-124.480469c3.039063-62.480469 41.28125-112 87.839844-112 27.359375 0 53.199219 17.519531 69.839844 47.121094-16.445313 18.421875-27.878906 40.761718-33.199219 64.878906zm11.519531 32c3.039063-62.480469 41.28125-112 87.839844-112s84.800781 49.519531 87.839844 112zm187.199219-32c-5.320313-24.117188-16.753906-46.457031-33.199219-64.878906 16.640625-29.601563 42.480469-47.121094 69.839844-47.121094 46.558594 0 84.800781 49.519531 87.839844 112zm0 0" data-original="#000000" class="" style="fill:#4A4EC7" data-old_color="#4a4ec7"/><path d="m240 136c-8.835938 0-16-7.164062-16-16h-16c.054688 14.546875 9.914062 27.226562 24 30.863281v9.136719h16v-9.136719c15.585938-4.011719 25.753906-18.992187 23.71875-34.957031-2.03125-15.96875-15.625-27.925781-31.71875-27.90625-8.835938 0-16-7.164062-16-16s7.164062-16 16-16 16 7.164062 16 16h16c-.054688-14.546875-9.914062-27.226562-24-30.863281v-9.136719h-16v9.136719c-15.585938 4.011719-25.753906 18.992187-23.71875 34.957031 2.03125 15.96875 15.625 27.925781 31.71875 27.90625 8.835938 0 16 7.164062 16 16s-7.164062 16-16 16zm0 0" data-original="#000000" class="" style="fill:#4A4EC7" data-old_color="#4a4ec7"/><path d="m376 104c-8.835938 0-16-7.164062-16-16h-16c.054688 14.546875 9.914062 27.226562 24 30.863281v9.136719h16v-9.136719c15.585938-4.011719 25.753906-18.992187 23.71875-34.957031-2.03125-15.96875-15.625-27.925781-31.71875-27.90625-8.835938 0-16-7.164062-16-16s7.164062-16 16-16 16 7.164062 16 16h16c-.054688-14.546875-9.914062-27.226562-24-30.863281v-9.136719h-16v9.136719c-15.585938 4.011719-25.753906 18.992187-23.71875 34.957031 2.03125 15.96875 15.625 27.925781 31.71875 27.90625 8.835938 0 16 7.164062 16 16s-7.164062 16-16 16zm0 0" data-original="#000000" class="" style="fill:#4A4EC7" data-old_color="#4a4ec7"/><path d="m96 104c-8.835938 0-16-7.164062-16-16h-16c.054688 14.546875 9.914062 27.226562 24 30.863281v9.136719h16v-9.136719c15.585938-4.011719 25.753906-18.992187 23.71875-34.957031-2.03125-15.96875-15.625-27.925781-31.71875-27.90625-8.835938 0-16-7.164062-16-16s7.164062-16 16-16 16 7.164062 16 16h16c-.054688-14.546875-9.914062-27.226562-24-30.863281v-9.136719h-16v9.136719c-15.585938 4.011719-25.753906 18.992187-23.71875 34.957031 2.03125 15.96875 15.625 27.925781 31.71875 27.90625 8.835938 0 16 7.164062 16 16s-7.164062 16-16 16zm0 0" data-original="#000000" class="" style="fill:#4A4EC7" data-old_color="#4a4ec7"/></g></g> </svg>
