<?xml version="1.0"?>
<svg xmlns="http://www.w3.org/2000/svg" height="512px" viewBox="0 -63 480 479" width="512px" class=""><g><path d="m328 128.5c-26.507812 0-48 21.492188-48 48s21.492188 48 48 48h144v-96zm0 0" fill="#78b9eb" data-original="#78B9EB" class="active-path" style="fill:#E8EFF4" data-old_color="#E1EBF2"/><path d="m440 296.5c0 8.835938-7.164062 16-16 16s-16-7.164062-16-16 7.164062-16 16-16 16 7.164062 16 16zm0 0" fill="#78b9eb" data-original="#78B9EB" class="active-path" style="fill:#E8EFF4" data-old_color="#E1EBF2"/><path d="m440 56.5c0 8.835938-7.164062 16-16 16s-16-7.164062-16-16 7.164062-16 16-16 16 7.164062 16 16zm0 0" fill="#78b9eb" data-original="#78B9EB" class="active-path" style="fill:#E8EFF4" data-old_color="#E1EBF2"/><g fill="#1a6fb0"><path d="m424 .5h-368c-30.914062.035156-55.9648438 25.085938-56 56v240c.0351562 30.914062 25.085938 55.964844 56 56h368c30.914062-.035156 55.964844-25.085938 56-56v-240c-.035156-30.914062-25.085938-55.964844-56-56zm40 216h-136c-22.089844 0-40-17.910156-40-40s17.910156-40 40-40h136zm0-96h-136c-30.929688 0-56 25.070312-56 56s25.070312 56 56 56h136v64c0 22.089844-17.910156 40-40 40h-368c-22.089844 0-40-17.910156-40-40v-240c0-22.089844 17.910156-40 40-40h368c22.089844 0 40 17.910156 40 40zm0 0" data-original="#000000" class="" style="fill:#4A4EC7" data-old_color="#4a4ec7"/><path d="m360 176.5c0 17.671875-14.328125 32-32 32v-16c8.835938 0 16-7.164062 16-16s-7.164062-16-16-16v-16c17.671875 0 32 14.328125 32 32zm0 0" data-original="#000000" class="" style="fill:#4A4EC7" data-old_color="#4a4ec7"/><path d="m48 40.5h32v16h-32zm0 0" data-original="#000000" class="" style="fill:#4A4EC7" data-old_color="#4a4ec7"/><path d="m96 40.5h64v16h-64zm0 0" data-original="#000000" class="" style="fill:#4A4EC7" data-old_color="#4a4ec7"/><path d="m48 64.5h112v16h-112zm0 0" data-original="#000000" class="" style="fill:#4A4EC7" data-old_color="#4a4ec7"/><path d="m424 272.5c-13.253906 0-24 10.746094-24 24s10.746094 24 24 24 24-10.746094 24-24c-.039062-13.238281-10.761719-23.960938-24-24zm0 32c-4.417969 0-8-3.582031-8-8s3.582031-8 8-8 8 3.582031 8 8-3.582031 8-8 8zm0 0" data-original="#000000" class="" style="fill:#4A4EC7" data-old_color="#4a4ec7"/><path d="m424 32.5c-13.253906 0-24 10.746094-24 24s10.746094 24 24 24 24-10.746094 24-24c-.039062-13.238281-10.761719-23.960938-24-24zm0 32c-4.417969 0-8-3.582031-8-8s3.582031-8 8-8 8 3.582031 8 8-3.582031 8-8 8zm0 0" data-original="#000000" class="" style="fill:#4A4EC7" data-old_color="#4a4ec7"/></g></g> </svg>
